<svg xmlns:xlink="http://www.w3.org/1999/xlink" xmlns="http://www.w3.org/2000/svg" version="1.1" viewBox="0 0 500 500" height="500px" width="500px">
    <title>彩虹头饰</title>
    <defs>
        <linearGradient id="linearGradient-1" y2="43.2783507%" x2="82.4999433%" y1="41.0012886%" x1="87.4128793%">
            <stop offset="0%" stop-color="#CB3E81"></stop>
            <stop offset="100%" stop-opacity="0" stop-color="#C42471"></stop>
            <stop offset="100%" stop-opacity="0" stop-color="#C42471"></stop>
        </linearGradient>
        <linearGradient id="linearGradient-2" y2="40.5427438%" x2="7.96644337%" y1="44.4412352%" x1="16.3560767%">
            <stop offset="0%" stop-opacity="0.206239073" stop-color="#FFFFFF"></stop>
            <stop offset="100%" stop-color="#FFFFFF"></stop>
        </linearGradient>
        <linearGradient id="linearGradient-3" y2="42.5368536%" x2="82.0299901%" y1="40.046846%" x1="86.1625709%">
            <stop offset="0%" stop-color="#CAA95A"></stop>
            <stop offset="100%" stop-color="#F5C95F"></stop>
        </linearGradient>
        <linearGradient id="linearGradient-4" y2="31.0691998%" x2="37.4914835%" y1="34.8774566%" x1="42.0209089%">
            <stop offset="0%" stop-opacity="0.206239073" stop-color="#FFFFFF"></stop>
            <stop offset="100%" stop-opacity="0.717930507" stop-color="#FFFFFF"></stop>
        </linearGradient>
        <linearGradient id="linearGradient-5" y2="33.0262827%" x2="83.4400688%" y1="24.9102121%" x1="55.364326%">
            <stop offset="0%" stop-color="#FA7261"></stop>
            <stop offset="100%" stop-color="#E26A5A"></stop>
        </linearGradient>
        <linearGradient id="linearGradient-6" y2="30.5729657%" x2="13.7435377%" y1="36.2896643%" x1="21.8358789%">
            <stop offset="0%" stop-opacity="0.206239073" stop-color="#FFFFFF"></stop>
            <stop offset="100%" stop-color="#FFFFFF"></stop>
        </linearGradient>
        <linearGradient id="linearGradient-7" y2="48.4485598%" x2="92.6558544%" y1="29.3454445%" x1="55.6770064%">
            <stop offset="0%" stop-color="#63A3FB"></stop>
            <stop offset="100%" stop-color="#4E80C5"></stop>
        </linearGradient>
        <linearGradient id="linearGradient-8" y2="24.0681087%" x2="23.0018899%" y1="30.0431399%" x1="26.7607913%">
            <stop offset="0%" stop-opacity="0.206239073" stop-color="#FFFFFF"></stop>
            <stop offset="100%" stop-color="#FFFFFF"></stop>
        </linearGradient>
        <linearGradient id="linearGradient-9" y2="42.6453473%" x2="20.9030785%" y1="46.489955%" x1="30.1440396%">
            <stop offset="0%" stop-color="#4E80C5"></stop>
            <stop offset="100%" stop-color="#63A3FB"></stop>
        </linearGradient>
        <linearGradient id="linearGradient-10" y2="57.9229955%" x2="50%" y1="41.7823009%" x1="46.42343%">
            <stop offset="0%" stop-color="#F3FCFF"></stop>
            <stop offset="100%" stop-color="#80D3FD"></stop>
        </linearGradient>
        <linearGradient id="linearGradient-11" y2="65.2439831%" x2="50%" y1="34.0749355%" x1="43.1791718%">
            <stop offset="0%" stop-color="#F3FCFF"></stop>
            <stop offset="100%" stop-color="#80D3FD"></stop>
        </linearGradient>
        <linearGradient id="linearGradient-12" y2="70.5608643%" x2="58.813782%" y1="42.8234155%" x1="50%">
            <stop offset="0%" stop-opacity="0.511746066" stop-color="#7195CC"></stop>
            <stop offset="64.1778937%" stop-opacity="0" stop-color="#7095CC"></stop>
            <stop offset="100%" stop-color="#6E94CC"></stop>
        </linearGradient>
        <linearGradient id="linearGradient-13" y2="65.9354946%" x2="50%" y1="30.057396%" x1="45.6890509%">
            <stop offset="0%" stop-color="#F3FCFF"></stop>
            <stop offset="100%" stop-color="#80D3FD"></stop>
        </linearGradient>
        <linearGradient id="linearGradient-14" y2="61.0446337%" x2="58.813782%" y1="46.1449701%" x1="50%">
            <stop offset="0%" stop-opacity="0.511746066" stop-color="#7195CC"></stop>
            <stop offset="64.1778937%" stop-opacity="0" stop-color="#7095CC"></stop>
            <stop offset="100%" stop-color="#6E94CC"></stop>
        </linearGradient>
    </defs>
    <g fill-rule="evenodd" fill="none" stroke-width="1" stroke="none" id="彩虹头饰">
        <g transform="translate(59.887908, 91.139882)" id="编组">
            <path fill="#EBEBEB" id="形状结合" d="M234.589553,88.9118743 L234.643025,88.9185888 C237.394644,89.2849529 240.152052,89.7441948 242.911891,90.2985596 C273.738057,96.4905677 299.617133,113.499352 317.471517,136.631206 L318.404701,137.855307 C317.792797,137.129808 317.172637,136.411073 316.544328,135.699262 C335.108831,159.235121 345.317942,189.263125 343.861994,220.731156 C344.422443,221.774064 344.903073,222.867824 345.291783,224.002884 L345.291783,224.002884 L345.785474,226.143126 L347.890911,225.648594 C349.296487,225.461794 350.763239,225.422041 352.255631,225.526838 C358.682666,225.978154 364.252109,229.178215 367.886042,233.899815 L367.879471,233.869029 L367.879471,233.869029 L367.833799,233.694075 C370.989684,237.729461 372.714778,242.903087 372.321277,248.432519 C372.228763,249.732459 372.02302,250.997766 371.71435,252.219411 C369.250617,262.225019 359.893701,269.31669 349.258395,268.569864 C347.019807,268.412667 344.910074,267.94333 342.929198,267.161851 L342.929198,267.161851 L340.267334,265.9043 L337.493799,268.814369 C333.313126,272.446444 327.743925,274.482131 321.809888,274.065435 C318.890874,273.860458 316.156501,273.088198 313.69896,271.863614 C311.243656,270.650086 309.06427,268.985761 307.252508,266.984193 L306.970001,266.665935 L306.071492,265.406215 L303.255589,266.695616 C301.735767,267.216219 300.155896,267.580714 298.527836,267.773752 C297.084832,267.948487 295.604086,267.989832 294.093869,267.886105 C287.847135,267.457058 282.385934,264.600556 278.504318,260.300248 L278.223128,259.983029 L277.117983,258.444643 C275.784931,258.602776 274.390882,258.614039 273.004411,258.518812 C260.241774,257.642231 250.631688,246.602131 251.541092,233.823296 C251.598563,233.015744 251.696653,232.22081 251.833218,231.440347 C252.93792,224.917117 256.72563,219.40005 261.955694,215.963757 C263.625454,195.428574 249.730683,176.215355 229.009539,171.246074 C228.594318,171.148009 228.176961,171.055373 227.756937,170.96854 C226.69562,170.749434 225.635679,170.571364 224.578805,170.433235 L224.676425,170.460189 L224.676425,170.460189 C214.403162,169.090016 204.413935,171.495632 196.259996,176.672674 C196.221266,176.69595 196.183201,176.720231 196.145177,176.744572 L196.259996,176.672674 C195.921805,176.887396 195.586771,177.106886 195.255005,177.331071 C194.993923,177.507039 194.735526,177.686095 194.479199,177.868011 C194.400228,177.924078 194.321015,177.98065 194.242002,178.037495 L194.479199,177.868011 C194.300675,177.99471 194.123156,178.122796 193.946658,178.252257 L194.242002,178.037495 C194.06723,178.163235 193.893435,178.290311 193.720636,178.418713 L193.946658,178.252257 C190.760287,180.589464 187.90699,183.37497 185.493285,186.539812 L185.184134,186.95144 C186.199208,190.003499 186.678642,193.261611 186.539711,196.585375 L186.387493,197.710403 L186.348492,197.688215 L186.275009,198.244107 L187.470203,198.405692 L187.586445,198.435321 C187.530534,198.399546 187.47447,198.363958 187.418253,198.328557 L187.519065,198.342933 C201.916939,201.923849 211.054017,215.764617 209.11386,230.203519 C208.970486,231.31394 208.762113,232.427877 208.485744,233.541007 C205.242035,246.605566 193.676083,255.352265 180.892573,255.521927 L180.435513,255.524333 C178.147747,255.518055 175.823852,255.236658 173.504286,254.655888 C171.824376,254.235276 170.176647,253.685054 168.657972,252.983591 L166.753649,254.388222 C162.431246,256.992696 157.454025,258.475976 152.270248,258.544771 L151.783677,258.547067 C149.510318,258.538362 147.200104,258.257162 144.890573,257.678905 C143.256797,257.269843 141.695564,256.732242 140.210913,256.077419 C138.148507,255.177241 136.234151,254.05131 134.47815,252.729662 L131.646492,250.121215 L130.102733,251.268923 C126.515406,253.430475 122.444709,254.762846 118.183003,255.073512 C115.3889,255.288573 112.512229,255.065785 109.635824,254.350392 C102.397655,252.550171 96.6260339,247.994984 93.074294,242.065022 L90.9114557,237.535694 L87.2700874,238.00639 C84.6199555,238.17308 81.9377327,237.918884 79.2234191,237.243803 C68.5684244,234.593784 61.0164479,225.914825 59.2477695,215.731164 L59.3717097,216.010741 C58.6619244,212.279397 58.7278421,208.337933 59.7027612,204.411259 C62.7571463,192.109231 73.7571758,183.885355 85.8502778,183.913794 L86.2775358,183.918232 C88.2734208,183.954992 90.2967716,184.216954 92.3169701,184.722768 C92.9953949,184.892631 93.6617287,185.085279 94.3137,185.300143 L94.4294319,185.338567 L94.4294319,185.338567 C96.3556983,177.521142 98.9706203,170.037892 102.191015,162.940412 C105.160619,156.344197 108.654073,150.08127 112.607667,144.193573 C109.096851,149.163064 105.921195,154.37777 103.132035,159.808042 C118.852909,127.531818 147.266095,103.671221 180.617892,93.4079457 L182.280896,92.9096151 L181.541929,93.1472123 C198.309122,88.0721177 216.319256,86.4413822 234.589553,88.9118743 Z M322.223269,202.951852 L322.318353,203.884513 C322.500557,205.750288 322.633199,207.626808 322.715182,209.512413 L322.758162,209.509028 C322.647139,207.309678 322.468274,205.123088 322.223269,202.951852 Z M146.918395,168.509309 L146.733953,168.794976 C145.750317,170.338205 144.814226,171.91861 143.928143,173.534554 L144.002834,173.480566 C144.921992,171.784838 145.894763,170.127134 146.918395,168.509309 Z"></path>
            <g fill-rule="nonzero" transform="translate(190.119108, 159.351071) rotate(22.000000) translate(-190.119108, -159.351071) translate(28.051883, 52.964814)" id="编组备份-2">
                <path fill="#FF4FA3" id="路径" d="M135.75452,2.17724898 C204.543961,-10.7262067 270.687653,35.0486222 283.487351,104.395686 L262.714657,108.288348 C252.060159,50.4750999 196.928498,12.3414236 139.580129,23.1183321 C82.2317595,33.8591975 44.404718,89.4377692 55.0949689,147.251018 L34.3580274,151.14368 C21.5583291,81.7605735 66.9650802,15.0807047 135.75452,2.17724898 Z"></path>
                <path fill="url(#linearGradient-1)" id="形状结合" d="M54.5856175,147.457314 L33.848676,151.349977 L33.7949979,151.047125 L54.499037,146.983257 C54.527535,147.141259 54.556395,147.299278 54.5856175,147.457314 Z M80.394235,27.2918033 C53.5725996,49.6176226 35.2433838,83.331047 31.9996166,118.935764 C34.4943561,83.1292476 51.929187,50.3712226 79.0496535,28.3659784 Z M282.978,104.601982 L262.205305,108.494645 C262.085171,107.842773 261.959381,107.193403 261.827998,106.546576 L274.298519,104.119529 C263.865536,45.3880708 210.641815,1.35287742 154.607544,0.269659881 C216.044191,-1.66990269 271.386281,41.7995906 282.978,104.601982 Z"></path>
                <path fill="url(#linearGradient-2)" id="形状结合" d="M222.393095,17.2056029 L223.716835,17.989743 C199.447471,5.18733347 170.902719,0.190203213 141.887245,5.63289732 C74.5756509,18.2591401 29.6528487,82.3759919 39.7460498,150.131777 L34.3580274,151.14368 C21.5583291,81.7605735 66.9650802,15.0807047 135.75452,2.17724898 C166.709768,-3.62930609 197.129253,2.44649147 222.393095,17.2056029 Z"></path>
                <path fill="#FED572" id="路径" d="M262.326167,107.309677 L241.600534,111.162749 C233.110515,65.3896856 189.09084,35.2072914 143.323219,43.6983196 C97.5555989,52.2250243 67.3767938,96.2142583 75.8668123,141.987322 L55.141179,145.840393 C44.5464921,88.6508214 82.2878346,33.6375215 139.470606,23.0058981 C196.68905,12.3742746 251.660135,50.1201055 262.326167,107.309677 Z"></path>
                <path fill="url(#linearGradient-3)" id="形状结合" d="M75.8668123,141.987322 L55.141179,145.840393 C55.0103071,145.133953 54.8868106,144.427846 54.7706351,143.72215 L75.7675376,141.442332 C75.8000208,141.623966 75.8331119,141.80563 75.8668123,141.987322 Z M262.326167,107.309677 L241.600534,111.162749 C241.450974,110.356416 241.29039,109.55492 241.118964,108.758389 L252.020863,106.731903 C243.273105,59.8278103 204.723645,26.0025089 159.574576,21.2179463 C209.052293,21.5586368 252.919475,56.8724824 262.326167,107.309677 Z"></path>
                <path fill="url(#linearGradient-4)" id="形状结合" d="M135.838748,23.745327 C85.5997171,39.3961473 53.8805936,90.5433341 63.7023841,143.560851 L63.7023841,143.560851 L75.7458145,141.320359 C75.7852363,141.542635 75.825568,141.764957 75.8668123,141.987322 L55.141179,145.840393 C44.8643327,90.3665086 80.0668565,36.9402782 134.377429,24.0814352 Z"></path>
                <path fill="#FC7968" id="路径" d="M143.19241,42.5457815 C188.818113,33.9659336 232.70129,64.4640483 241.164983,110.715917 L220.539178,114.609294 C214.173628,79.9294043 181.279026,57.0377934 147.033077,63.4907042 C112.822691,69.943615 90.2409912,103.289662 96.6065413,137.969552 L75.9451749,141.862928 C67.4814826,95.6471088 97.6022698,51.1616791 143.19241,42.5457815 Z"></path>
                <path fill="url(#linearGradient-5)" id="形状结合" d="M241.164983,110.715917 L220.539178,114.609294 L220.39693,113.869545 L233.720249,111.355365 C226.007639,69.2079645 188.882981,40.1423512 147.829678,41.807986 C191.754836,36.053372 232.988422,66.0331506 241.164983,110.715917 Z"></path>
                <path fill="url(#linearGradient-6)" id="形状结合" d="M168.779355,41.7274308 L169.437052,41.8138115 C163.643228,41.6546774 157.728906,42.1101268 151.763869,43.2318433 C106.90745,51.7090779 77.0264678,94.9105765 84.1378784,140.319104 L75.9451749,141.862928 C67.4814826,95.6471088 97.6022698,51.1616791 143.19241,42.5457815 C151.861294,40.9156104 160.467272,40.6961537 168.779355,41.7274308 Z M171.498967,63.7548988 C175.899229,64.4831445 180.025308,65.8525384 183.864314,67.7739092 C180.091327,66.0958711 176.142965,64.785228 172.07076,63.8788026 Z"></path>
                <path fill="#63A3FB" id="路径" d="M147.990105,62.0575817 C182.773106,55.7175302 216.18357,78.2087745 222.648946,112.282124 L201.663563,116.107407 C197.365352,93.4036467 175.07967,78.4212902 151.891002,82.6361848 C128.738454,86.8510794 113.423819,108.704777 117.75815,131.408537 L96.7727667,135.233819 C90.3073905,101.16047 113.243222,68.3976333 147.990105,62.0575817 Z"></path>
                <g fill="url(#linearGradient-7)" transform="translate(111.519285, 60.987801)" id="形状结合-2">
                    <path id="形状结合" d="M6.23886494,70.4207359 L0.72672093,71.4254929 C-3.58391836,48.7349964 11.7266513,26.9027509 34.8666204,22.6901463 C35.6897679,22.5405267 36.5117776,22.4150975 37.3318852,22.3133453 C15.8961076,27.8083773 2.09725742,48.7264823 6.23886494,70.4207359 Z M111.129661,51.2943234 L105.617511,52.2989741 C99.279762,19.007223 67.2150793,-3.2162412 33.2939455,1.7296943 C34.3411288,1.4854952 35.4003694,1.26509944 36.4708197,1.06978092 C71.2538213,-5.27027063 104.664285,17.2209737 111.129661,51.2943234 Z"></path>
                </g>
                <path fill="url(#linearGradient-8)" id="形状结合" d="M161.182908,61.0030042 L160.315716,61.0989193 C158.930425,61.2613652 157.541301,61.4688372 156.149981,61.7224392 C121.782558,67.9932532 98.9696244,100.112894 104.731321,133.782867 L96.7727667,135.233819 C90.3073905,101.16047 113.243222,68.3976333 147.990105,62.0575817 C152.427748,61.2487129 156.843051,60.909127 161.182908,61.0030042 Z"></path>
                <path fill="url(#linearGradient-9)" id="形状结合" d="M147.031291,80.4769705 C156.390146,78.7758556 165.598771,80.2685966 173.485489,84.1681651 C166.764051,81.9150996 159.37455,81.2759357 151.891002,82.6361848 C128.738454,86.8510794 113.423819,108.704777 117.75815,131.408537 L96.7727667,135.233819 C96.5303468,133.956236 96.3292616,132.680495 96.1685837,131.40792 L113.612546,128.228936 C109.368896,106.000171 124.363127,84.6036836 147.031291,80.4769705 Z M222.648946,112.282124 L201.663563,116.107407 C201.406589,114.750034 201.085321,113.42026 200.703409,112.120539 L221.510199,107.368766 C221.952217,108.977514 222.332796,110.615972 222.648946,112.282124 Z"></path>
                <path transform="translate(81.783138, 154.596224) rotate(-8.000000) translate(-81.783138, -154.596224)" fill="url(#linearGradient-10)" id="路径" d="M100.925494,106.505147 C113.956136,106.500739 124.804466,115.757934 127.335288,128.045535 L127.51264,129.648317 L128.713461,129.51434 C144.679333,129.508937 157.616655,142.460868 157.611245,158.489292 C157.605832,174.517717 144.659762,187.478406 128.69389,187.483809 C126.959435,187.484396 125.225026,187.351413 123.579624,187.040306 L122.066919,188.866277 C116.81731,194.121814 109.611557,197.374461 101.606385,197.37717 C97.6037982,197.378524 93.8238483,196.578382 90.3554361,195.110284 L86.9316324,193.24146 L85.6858722,194.755677 C80.7921687,199.654907 74.075696,202.684771 66.6042014,202.687301 C59.1327069,202.689828 52.4182785,199.664509 47.527882,194.76859 L44.3271206,190.896138 L40.9022347,192.232999 C38.3669927,193.035278 35.6984665,193.436892 32.896656,193.43784 C17.99814,193.442882 5.94999631,181.336595 5.95503039,166.421256 C5.96006762,151.505916 18.0163886,139.391472 32.9149046,139.38643 C34.7827783,139.385798 36.6061186,139.563275 38.3404525,139.918875 L40.9196265,140.719423 L41.7210306,138.092272 C45.8158403,128.384786 55.3798593,121.613993 66.5871012,121.6102 C68.4549749,121.609568 70.2783152,121.787045 72.012649,122.142645 L75.9258832,123.343452 L76.0594531,122.898173 C80.1986908,113.324242 89.7627249,106.508926 100.925494,106.505147 L100.925494,106.505147 Z"></path>
                <path transform="translate(81.783138, 154.596224) rotate(-8.000000) translate(-81.783138, -154.596224)" fill="url(#linearGradient-11)" id="路径" d="M127.335288,128.045535 L127.51264,129.648317 L128.713461,129.51434 C144.679333,129.508937 157.616655,142.460868 157.611245,158.489292 C157.605832,174.517717 144.659762,187.478406 128.69389,187.483809 C126.959435,187.484396 125.225026,187.351413 123.579624,187.040306 L122.066919,188.866277 C116.81731,194.121814 109.611557,197.374461 101.606385,197.37717 C97.6037982,197.378524 93.8238483,196.578382 90.3554361,195.110284 L86.9316324,193.24146 L85.6858722,194.755677 C80.7921687,199.654907 74.075696,202.684771 66.6042014,202.687301 C59.1327069,202.689828 52.4182785,199.664509 47.527882,194.76859 L44.3271206,190.896138 L40.9022347,192.232999 C38.3669927,193.035278 35.6984665,193.436892 32.896656,193.43784 C17.99814,193.442882 5.94999631,181.336595 5.95503039,166.421256 C5.96006762,151.505916 18.0163886,139.391472 32.9149046,139.38643 C34.7827783,139.385798 36.6061186,139.563275 38.3404525,139.918875 L40.9196265,140.719423 L41.7210306,138.092272 C45.8158403,128.384786 55.3798593,121.613993 66.5871012,121.6102 C68.4549749,121.609568 70.2783152,121.787045 72.012649,122.142645 L75.9258832,123.343452 L76.0594531,122.898173 C80.1986908,113.324242 89.7627249,106.508926 100.925494,106.505147 C113.956136,106.500739 124.804466,115.757934 127.335288,128.045535 Z"></path>
                <path fill="url(#linearGradient-12)" id="形状结合" d="M157.415102,147.898172 C159.640467,163.771362 148.624166,178.407664 132.814425,180.635035 C131.096932,180.877005 129.360894,180.986699 127.688207,180.907616 L126.44435,182.926344 C121.977259,188.86134 115.294313,193.085178 107.367423,194.201966 C103.403978,194.76036 99.5494561,194.494072 95.9104785,193.522971 L92.259905,192.148835 L91.2370068,193.821692 C87.0727694,199.354315 80.8433365,203.289445 73.4449061,204.331781 C66.0464753,205.374115 58.9763483,203.312706 53.4521646,199.145046 L49.7436117,195.75574 L46.5381115,197.556242 C44.139198,198.703551 41.5525355,199.472644 38.7781241,199.863519 C27.8872161,201.397895 17.6159802,196.179924 12.1516651,187.400358 C17.6226386,192.787654 25.5429874,195.659439 33.8567725,194.488143 C36.4939117,194.116607 38.9538657,193.394657 41.2366343,192.322293 L41.2366343,192.322293 L44.2877803,190.641172 L47.8005238,193.774922 C53.035808,197.625286 59.7464918,199.516028 66.7788633,198.525267 C73.8112345,197.534503 79.7420753,193.862748 83.7158489,188.714957 L83.7158489,188.714957 L84.6929501,187.159206 L88.1569541,188.422936 C91.6112103,189.312663 95.2724698,189.547597 99.0398116,189.016831 C106.574495,187.9553 112.937118,184.014171 117.199894,178.491995 L117.199894,178.491995 L118.388012,176.614554 C119.976947,176.682655 121.626664,176.575359 123.259179,176.345361 C138.286687,174.228196 148.799124,160.609948 146.734836,145.885693 C145.087453,134.13518 135.934359,125.274944 124.666788,123.251398 L124.766015,123.226997 C140.575756,120.999627 155.189733,132.024982 157.415102,147.898172 Z M65.4381529,123.775675 L65.377469,123.980948 L65.3092324,124.407647 L62.5744147,123.990593 L62.8368324,123.956949 C63.711081,123.855096 64.5797519,123.794451 65.4381529,123.775675 Z M123.196836,121.96429 L123.47823,123.0645 C120.989593,122.728358 118.409307,122.724084 115.79333,123.092638 L115.79333,123.092638 L114.68033,123.37457 L114.306463,121.925734 C110.632719,111.787038 100.585366,104.976685 89.3835289,105.391352 C90.8772394,104.901726 92.4348328,104.536086 94.0462172,104.309065 C106.949433,102.491185 118.98054,110.148494 123.196836,121.96429 Z"></path>
                <path transform="translate(254.386775, 110.045694) rotate(-18.000000) translate(-254.386775, -110.045694)" fill="url(#linearGradient-13)" id="路径" d="M217.85928,88.8578218 L217.715595,90.1392528 L216.752022,90.0331707 C203.939055,90.0424155 193.545598,100.40731 193.536365,113.220589 C193.527145,126.033868 203.905685,136.383775 216.718652,136.37453 C218.11059,136.373526 219.502605,136.265744 220.823341,136.015644 L222.035775,137.474059 C226.244255,141.670928 232.02428,144.265005 238.448609,144.260369 C241.660773,144.258052 244.694945,143.615199 247.479667,142.43864 L250.228929,140.941774 L251.227397,142.151196 C255.150557,146.063532 260.538112,148.47993 266.534153,148.475609 C272.494502,148.471303 277.921234,146.047103 281.850032,142.129102 L284.421993,139.030705 L287.16941,140.096495 C289.203319,140.735692 291.344531,141.054478 293.593047,141.052856 C305.549437,141.044229 315.228592,131.356107 315.237184,119.432639 C315.245764,107.509171 305.5805,97.9061899 293.62411,97.9148166 C292.1251,97.9158982 290.661678,98.0593238 289.269535,98.3450676 L287.199012,98.9872251 L286.558091,96.8877346 C283.280132,89.1309514 275.610524,83.7264368 266.652154,83.7329004 C265.153144,83.733982 263.689722,83.8774076 262.297579,84.1631514 L259.156104,85.1264135 L259.049289,84.7705663 C255.699923,77.0494271 248.03034,71.60932 239.07197,71.6157779 C228.61459,71.6233288 219.900725,79.0328401 217.85928,88.8578218 Z"></path>
                <path fill="url(#linearGradient-14)" id="形状结合" d="M305.460884,88.1851864 C309.906427,90.7445168 313.450179,94.8951884 315.159678,100.169398 C318.836061,111.511945 312.624432,123.716921 301.255895,127.419853 C299.117932,128.116226 296.983007,128.474712 294.851122,128.495313 L294.851122,128.495313 L291.908826,128.330685 L290.420203,132.072215 C287.894423,137.012521 283.482413,140.995024 277.815115,142.840969 C272.113877,144.697957 266.243299,144.064672 261.303174,141.556142 L261.303174,141.556142 L259.979842,140.714458 L257.827696,142.98763 C255.542845,144.96713 252.855828,146.51613 249.801594,147.510948 C243.693127,149.500583 237.394383,148.819596 232.094976,146.128628 L232.094976,146.128628 L230.491208,145.116256 C229.312399,145.762245 228.021821,146.294907 226.698319,146.725995 C214.51532,150.694212 201.446445,144.058011 197.495693,131.869009 C197.199817,130.956158 196.963576,130.03837 196.784814,129.119837 C201.948531,137.977552 212.796591,142.322315 223.015326,138.993894 C224.294065,138.577386 225.54121,138.063402 226.680654,137.440811 L228.227238,138.409867 C233.338946,140.9837 239.419422,141.625494 245.321295,139.70315 C248.272232,138.741978 250.869663,137.249352 253.079606,135.344106 L255.161978,133.157113 L256.438114,133.962804 C261.203266,136.362139 266.870415,136.958951 272.378831,135.164769 C277.854456,133.381256 282.122127,129.548499 284.570376,124.799632 L286.014896,121.203905 L288.855527,121.356324 C290.914018,121.332435 292.976092,120.98408 295.041747,120.31126 C306.025789,116.733564 312.046853,105.001591 308.518848,94.1168267 C307.827793,91.98476 306.822084,90.0447674 305.568954,88.3302929 Z"></path>
            </g>
        </g>
    </g>
</svg>