<?xml version="1.0" standalone="no"?><!DOCTYPE svg PUBLIC "-//W3C//DTD SVG 1.1//EN" "http://www.w3.org/Graphics/SVG/1.1/DTD/svg11.dtd"><svg class="icon" width="200px" height="200.00px" viewBox="0 0 1024 1024" version="1.1" xmlns="http://www.w3.org/2000/svg"><path d="M528.252661 950.942077l295.703769-289.705148c9.624195-9.380648 9.624195-24.707728 0-34.138518-9.576099-9.381671-25.222451-9.381671-34.848693 0L535.495622 875.592972 535.495622 88.901773c0-13.3214-11.048637-24.142863-24.642237-24.142863-13.597693 0-24.645306 10.821463-24.645306 24.142863l0 786.690176L232.574475 627.098411c-9.603729-9.381671-25.248034-9.381671-34.847669 0-4.836145 4.76349-7.194866 10.939143-7.194866 17.116843 0 6.1777 2.405793 12.355399 7.194866 17.116843l295.723212 289.704125c9.602705 9.383718 25.244964 9.383718 34.850739 0L528.252661 950.942077z" fill="#39C45B" /></svg>